<?xml version="1.0" encoding="UTF-8"?><svg id="Ebene_1" xmlns="http://www.w3.org/2000/svg" viewBox="0 0 537.71 99.5"><defs><style>.cls-1,.cls-2{stroke-width:0px;}.cls-2{fill:#ee7d00;}</style></defs><path class="cls-1" d="m148.48,49.75l13.88-22.09h-18.82l-10.85,17.33V0h-12.91c-2.71,0-4.91,2.2-4.91,4.91v55.35l17.74,39.24h.08v-24.48s6.39-10.21,6.39-10.21l21.47,34.6,19.01.09-31.08-49.75Z"/><path class="cls-1" d="m474.74,99.5h19.25L448.31,0l-45.69,99.5h19.25l8.91-19.27h19.99c2.83,0,4.71-2.93,3.52-5.5l-5.68-12.32h-9.59l9.43-20.41,26.29,57.5Z"/><path class="cls-1" d="m404.99,71.41l17.82-38.98V0h-19.3l-26.29,57.5L350.64,0h-14.28c-2.67,0-4.83,2.16-4.83,4.83v94.66h17.82v-60.38l27.72,60.38,27.92-60.8v32.71Z"/><path class="cls-1" d="m532.68.1h-72.33l8.32,17.82h30.58v81.58h17.82V17.91h20.65V5.12c0-2.78-2.25-5.03-5.03-5.03Z"/><path class="cls-1" d="m102.93,99.5h19.25L76.5,0,30.81,99.5h19.25l8.91-19.27h19.77c2.93,0,4.87-3.04,3.65-5.7l-5.59-12.12h-9.59l9.43-20.41,26.29,57.5Z"/><path class="cls-1" d="m58.52,17.83L66.84.01H4.94C2.21.01,0,2.22,0,4.95l.04,94.54h17.82v-36.69h18.4l9.5-17.82h-27.9v-27.16h40.66Z"/><path class="cls-1" d="m219.39.1h-58.74l-10.69,17.82h35.9v81.58h17.82V17.91h20.65V5.03c0-2.73-2.21-4.94-4.94-4.94Z"/><circle class="cls-1" cx="219.38" cy="62.46" r="5.05"/><circle class="cls-1" cx="315.25" cy="62.46" r="5.05"/><path class="cls-2" d="m266.7,27.81c-19.8,0-35.85,16.05-35.85,35.85s16.05,35.85,35.85,35.85,35.85-16.05,35.85-35.85-16.05-35.85-35.85-35.85Zm0,53.79c-9.91,0-17.94-8.03-17.94-17.94s8.03-17.94,17.94-17.94,17.94,8.03,17.94,17.94-8.03,17.94-17.94,17.94Z"/></svg>